<?xml version="1.0" encoding="iso-8859-1"?>
<!-- Generator: Adobe Illustrator 16.0.0, SVG Export Plug-In . SVG Version: 6.00 Build 0)  -->
<!DOCTYPE svg PUBLIC "-//W3C//DTD SVG 1.1//EN" "http://www.w3.org/Graphics/SVG/1.1/DTD/svg11.dtd">
<svg version="1.1" id="Capa_1" xmlns="http://www.w3.org/2000/svg" xmlns:xlink="http://www.w3.org/1999/xlink" x="0px" y="0px"
	 width="384.014px" height="384.014px" viewBox="0 0 384.014 384.014" style="enable-background:new 0 0 384.014 384.014;"
	 xml:space="preserve">
<g>
	<g>
		<path d="M379.642,320.896l-48.96-0.006c-2.415,0-4.371,1.957-4.371,4.371c-0.002,15.846-10.997,26.916-26.739,26.916
			c-8.921-0.002-15.799-2.455-20.442-7.299c-7.392-7.703-7.035-19.219-7.029-19.422c0.002-0.033,0.604-4.568-4.366-4.568
			l-172.29-0.008c-2.415,0-4.371,1.955-4.371,4.371C91.07,341.62,78.747,354.94,63.6,354.94
			c-15.146-0.002-27.468-12.326-27.468-27.475c0.002-7.338,2.861-14.236,8.049-19.424c5.186-5.188,12.081-8.043,19.416-8.043h0.009
			c5.615,0,9.138,0.936,13.086,3.309c1.922,1.154,6.66,0.609,6.66-3.725l0.011-221.612c0-15.812-4.496-30.158-12.662-40.389
			c-9.003-11.284-21.862-17.25-37.185-17.25h-0.01c-11.179,0-22.63,3.095-31.42,8.487c-2.058,1.266-2.702,3.957-1.439,6.012
			c1.264,2.056,3.955,2.698,6.012,1.441c7.346-4.512,17.379-7.199,26.848-7.199h0.008c12.571,0,23.067,4.828,30.354,13.958
			c6.933,8.692,10.752,21.096,10.752,34.936l-0.01,214.803c-3.256-1.041-6.762-1.516-11.002-1.516h-0.011
			c-9.669,0-18.76,3.764-25.599,10.602c-6.838,6.838-10.606,15.934-10.608,25.607c0,19.967,16.243,36.215,36.211,36.217
			c18.574,0,33.919-14.92,35.974-34.061l163.989,0.008c0.546,5.309,2.488,14.201,9.184,21.229
			c6.361,6.676,15.386,10.061,26.825,10.062c19.073,0,33.275-12.92,35.229-31.287l44.842,0.006c2.415,0,4.372-1.957,4.372-4.371
			C384.014,322.851,382.057,320.896,379.642,320.896z"/>
		<path d="M101.62,158.995h29.726c7.232,0,13.114,5.882,13.114,13.114v125.898c0,2.414,1.957,4.371,4.372,4.371
			c2.415,0,4.371-1.957,4.371-4.371V172.109c0-12.053-9.804-21.857-21.857-21.857H101.62c-2.415,0-4.372,1.957-4.372,4.372
			C97.248,157.038,99.207,158.995,101.62,158.995z"/>
		<path d="M203.153,303.935h107.829c2.415,0,4.371-1.955,4.371-4.373v-44.385c0-2.416-1.956-4.371-4.371-4.371h-6.052l13.506-18.012
			l13.957,18.012h-6.614c-2.415,0-4.372,1.955-4.372,4.371v44.385c0,2.418,1.957,4.373,4.372,4.373h34.471
			c6.014,0,10.908-4.895,10.908-10.908V160.091c0-2.415-1.957-4.372-4.372-4.372s-4.371,1.957-4.371,4.372v132.936
			c0,1.174-0.991,2.164-2.165,2.164h-30.1v-35.643h9.684c2.088,0,3.845-1.043,4.703-2.791c0.857-1.746,0.605-3.775-0.675-5.428
			l-21.119-27.254c-1.079-1.393-2.688-2.168-4.391-2.172c-1.71,0.012-3.298,0.828-4.357,2.24l-20.416,27.225
			c-1.247,1.66-1.475,3.682-0.608,5.414c0.863,1.73,2.619,2.764,4.694,2.764h8.946v35.643H203.153c-3.574,0-6.48-2.906-6.48-6.48
			v-124.79c0-3.576,2.906-6.482,6.48-6.482h132.133c2.414,0,4.371-1.955,4.371-4.372c0-2.411-1.957-4.371-4.371-4.371H203.153
			c-8.395,0-15.222,6.83-15.222,15.225v124.79C187.93,297.106,194.759,303.935,203.153,303.935z"/>
	</g>
</g>
<g>
</g>
<g>
</g>
<g>
</g>
<g>
</g>
<g>
</g>
<g>
</g>
<g>
</g>
<g>
</g>
<g>
</g>
<g>
</g>
<g>
</g>
<g>
</g>
<g>
</g>
<g>
</g>
<g>
</g>
</svg>
